<?xml version="1.0" standalone="no"?>
<!DOCTYPE svg PUBLIC "-//W3C//DTD SVG 20010904//EN"
 "http://www.w3.org/TR/2001/REC-SVG-20010904/DTD/svg10.dtd">
<svg version="1.0" xmlns="http://www.w3.org/2000/svg"
 width="500.000000pt" height="500.000000pt" viewBox="0 0 500.000000 500.000000"
 preserveAspectRatio="xMidYMid meet">
<metadata>
Created by potrace 1.14, written by Peter Selinger 2001-2017
</metadata>
<g transform="translate(0.000000,500.000000) scale(0.100000,-0.100000)"
fill="#000000" stroke="none">
<path d="M0 2500 l0 -2500 2500 0 2500 0 0 2500 0 2500 -2500 0 -2500 0 0
-2500z m4920 0 l0 -2420 -2420 0 -2420 0 0 2420 0 2420 2420 0 2420 0 0 -2420z"/>
<path d="M870 3805 c0 -52 4 -95 9 -95 18 0 386 -41 388 -44 4 -4 -266 -2276
-271 -2285 -3 -4 -34 -11 -68 -15 -35 -3 -102 -11 -150 -17 l-88 -12 0 -88 0
-89 480 0 480 0 0 89 0 88 -52 6 c-29 3 -110 12 -180 19 -121 11 -128 13 -128
34 0 12 33 397 74 855 41 459 87 969 101 1134 15 165 30 308 34 318 4 12 36
-77 94 -265 48 -156 230 -705 404 -1221 l316 -938 120 3 120 3 38 115 c133
405 599 1878 660 2085 41 138 75 243 76 235 9 -53 85 -786 153 -1470 43 -443
82 -820 84 -838 3 -21 0 -34 -7 -37 -7 -2 -83 -11 -169 -20 l-158 -18 0 -88 0
-89 535 0 535 0 0 84 c0 47 -4 87 -8 90 -5 3 -69 12 -143 21 -74 9 -143 20
-155 25 -18 7 -22 24 -36 136 -9 71 -76 583 -147 1138 -72 555 -130 1010 -128
1012 1 1 90 12 197 24 107 12 199 25 203 29 4 4 7 46 5 92 l-3 84 -485 0 -485
0 -260 -831 c-190 -607 -273 -890 -309 -1045 -27 -118 -52 -217 -56 -222 -3
-4 -32 90 -63 210 -49 186 -548 1805 -577 1871 l-10 22 -485 0 -485 0 0 -95z"/>
</g>
</svg>
